/* XPM */
static char *graphic[] = {
/* width height num_colors chars_per_pixel */
"16 16 94 2", 
/* colors */
"   c None",
".  c None",
"X  c None",
"o  c #FBDE01",
"O  c None",
"+  c None",
"@  c #FDE101",
"#  c #FDE101",
"$  c None",
"%  c #FEE101",
"&  c None",
"*  c None",
"=  c #FDDF01",
"-  c None",
";  c None",
":  c None",
">  c None",
",  c None",
"<  c None",
"1  c None",
"2  c None",
"3  c None",
"4  c None",
"5  c None",
"6  c None",
"7  c #FDE101",
"8  c #FEE101",
"9  c None",
"0  c None",
"q  c None",
"w  c None",
"e  c #FDE201",
"r  c None",
"t  c None",
"y  c None",
"u  c None",
"i  c #FDE001",
"p  c None",
"a  c #FDE001",
"s  c None",
"d  c #FDE001",
"f  c None",
"g  c None",
"h  c #FBDF01",
"j  c #FDE201",
"k  c None",
"l  c None",
"z  c None",
"x  c None",
"c  c None",
"v  c None",
"b  c None",
"n  c None",
"m  c None",
"M  c None",
"N  c None",
"B  c None",
"V  c None",
"C  c None",
"Z  c None",
"A  c #FDE001",
"S  c None",
"D  c #FDE001",
"F  c None",
"G  c None",
"H  c None",
"J  c None",
"K  c None",
"L  c None",
"P  c None",
"I  c None",
"U  c None",
"Y  c None",
"T  c #FDE101",
"R  c None",
"E  c None",
"W  c None",
"Q  c #FDE101",
"!  c #FDE101",
"~  c #FFE201",
"^  c #FBE001",
"/  c None",
"(  c None",
")  c #FDDF01",
"_  c #FDE101",
"`  c #FDE101",
"'  c None",
"]  c #FDE101",
"[  c None",
"{  c #FDDF01",
"}  c #FDE101",
"|  c None",
" . c None",
".. c None",
/* pixels */
"      H 2 5 / ..../ 5 2 H       ",
"    O R : ^ G z z ..i : x r     ",
"  K 0 h z > Z w w  .> 3 Q 9 K   ",
"H R ) + b E C < < C E [ ' % Y H ",
"2 : & | I @ 7 A = 7 @ I | V c 2 ",
"5 e N v * 8 D j j D 8 * v N i R ",
"/ ..X t 1 { ` # # ` { 1 t w * z ",
"f z u 6 ! - } ~ ~ } - ! 6 J / G ",
"f z u 2 T M ` a a ` M T 2 u / B ",
"g ..L H , _ S o d S _ , H L . z ",
"5 e n    .s S Q Q S s  .  > i R ",
"2 : z L   U l ] ] l U   P g ; ( ",
"H Y Q p L   k y y k   L m Q Y H ",
"  K 9 Q $ W L q q L > g Q F K   ",
"    K Y 4 i f g / * i ; Y K     ",
"      H 2 R z B B z R ( H       "
};
