/* XPM */
static char *graphic[] = {
/* width height num_colors chars_per_pixel */
"64 64 539 2", 
/* colors */
"   c None",
".  c #FEE301",
"X  c None",
"o  c None",
"O  c None",
"+  c #FDE101",
"@  c None",
"#  c None",
"$  c None",
"%  c #FDE101",
"&  c None",
"*  c #FDDF01",
"=  c #FDE101",
"-  c None",
";  c None",
":  c None",
">  c None",
",  c None",
"<  c None",
"1  c None",
"2  c None",
"3  c #FDE101",
"4  c #FEE101",
"5  c None",
"6  c None",
"7  c None",
"8  c #FEE101",
"9  c None",
"0  c #FDE101",
"q  c None",
"w  c #FDE101",
"e  c #FEE101",
"r  c #FDE101",
"t  c None",
"y  c #FDE101",
"u  c None",
"i  c #FDE101",
"p  c None",
"a  c None",
"s  c #FDE101",
"d  c #FDE101",
"f  c None",
"g  c #FEE101",
"h  c #FEE301",
"j  c #FDE101",
"k  c #FEE101",
"l  c #FDE101",
"z  c None",
"x  c None",
"c  c None",
"v  c #FDE101",
"b  c None",
"n  c #FDE101",
"m  c None",
"M  c #FDE101",
"N  c None",
"B  c #FDE101",
"V  c #FEE301",
"C  c None",
"Z  c #FDE101",
"A  c None",
"S  c #FEE301",
"D  c #FDE101",
"F  c #FEE101",
"G  c #FDE101",
"H  c None",
"J  c None",
"K  c #FDE101",
"L  c None",
"P  c None",
"I  c None",
"U  c None",
"Y  c #FDE101",
"T  c #FEE101",
"R  c None",
"E  c #FDE101",
"W  c #FEE101",
"Q  c None",
"!  c None",
"~  c #FDE101",
"^  c None",
"/  c #FDE101",
"(  c #FEE101",
")  c None",
"_  c None",
"`  c None",
"'  c #FDE101",
"]  c #FFE201",
"[  c #FEE101",
"{  c #FEE101",
"}  c #FDE101",
"|  c None",
" . c #FEE101",
".. c None",
"X. c #FDE101",
"o. c #FDE101",
"O. c #FEE101",
"+. c None",
"@. c #FDE101",
"#. c None",
"$. c #FDE101",
"%. c None",
"&. c #FEE101",
"*. c #FDE101",
"=. c #FFE301",
"-. c #FDE101",
";. c None",
":. c None",
">. c None",
",. c #FDE101",
"<. c None",
"1. c #FEE101",
"2. c None",
"3. c #FDE101",
"4. c #FEE101",
"5. c None",
"6. c None",
"7. c #FDE101",
"8. c None",
"9. c #FDE101",
"0. c #FEE101",
"q. c #FDE101",
"w. c #FEE101",
"e. c #FFE201",
"r. c #FDE101",
"t. c #FDE101",
"y. c None",
"u. c None",
"i. c #FDE101",
"p. c None",
"a. c None",
"s. c #FDE101",
"d. c None",
"f. c #FEE101",
"g. c #FDE101",
"h. c None",
"j. c #FDE101",
"k. c #FDE101",
"l. c None",
"z. c #FDE101",
"x. c None",
"c. c #FDE101",
"v. c #FDE101",
"b. c None",
"n. c #FFE101",
"m. c None",
"M. c None",
"N. c None",
"B. c #FEE101",
"V. c None",
"C. c None",
"Z. c #FEE101",
"A. c #FDE101",
"S. c None",
"D. c #FDE101",
"F. c None",
"G. c #FDE101",
"H. c #FDE201",
"J. c #FDE101",
"K. c None",
"L. c #FEE101",
"P. c None",
"I. c #FDE201",
"U. c #FDE101",
"Y. c #FDE201",
"T. c None",
"R. c None",
"E. c None",
"W. c #FDE101",
"Q. c None",
"!. c None",
"~. c None",
"^. c None",
"/. c None",
"(. c #FEE101",
"). c None",
"_. c #FEE101",
"`. c #FEE101",
"'. c None",
"]. c #FEE101",
"[. c None",
"{. c None",
"}. c #FDE201",
"|. c None",
" X c None",
".X c None",
"XX c #FEE101",
"oX c None",
"OX c #FEE101",
"+X c None",
"@X c #FEE101",
"#X c None",
"$X c #FEE101",
"%X c None",
"&X c None",
"*X c #FEE101",
"=X c #FDE201",
"-X c #FDE001",
";X c #FDE201",
":X c #FDE001",
">X c #FDE001",
",X c None",
"<X c None",
"1X c #FEE101",
"2X c None",
"3X c #FDE001",
"4X c #FEE101",
"5X c #FDE201",
"6X c #FDE201",
"7X c #FDE001",
"8X c #FDE201",
"9X c None",
"0X c None",
"qX c None",
"wX c #FDE001",
"eX c #FEE101",
"rX c #FDE001",
"tX c #FEE101",
"yX c #FEE101",
"uX c #FEE101",
"iX c None",
"pX c None",
"aX c #FEE101",
"sX c #FEE101",
"dX c None",
"fX c None",
"gX c None",
"hX c #FDE201",
"jX c #FDE001",
"kX c None",
"lX c #FEE101",
"zX c None",
"xX c #FDE001",
"cX c #FDE001",
"vX c #FEE101",
"bX c #FFE301",
"nX c None",
"mX c #FEE101",
"MX c #FEE101",
"NX c #FEE101",
"BX c None",
"VX c None",
"CX c None",
"ZX c None",
"AX c None",
"SX c None",
"DX c None",
"FX c #FDE201",
"GX c #FEE101",
"HX c #FEE101",
"JX c None",
"KX c #FDE201",
"LX c #FDE001",
"PX c #FDE001",
"IX c #FDE001",
"UX c #FDE001",
"YX c None",
"TX c #FEE101",
"RX c None",
"EX c None",
"WX c #FEE101",
"QX c None",
"!X c #FEE101",
"~X c #FDE001",
"^X c #FEE101",
"/X c #FDE001",
"(X c None",
")X c #FDE201",
"_X c #FEE101",
"`X c None",
"'X c None",
"]X c #FEE101",
"[X c #FDE201",
"{X c None",
"}X c None",
"|X c #FEE101",
" o c None",
".o c #FEE101",
"Xo c None",
"oo c #FDE201",
"Oo c #FFE101",
"+o c #FEE101",
"@o c None",
"#o c #FEE201",
"$o c None",
"%o c #FEE101",
"&o c None",
"*o c #FEE201",
"=o c #FEE101",
"-o c None",
";o c #FEE201",
":o c #FEE101",
">o c None",
",o c #FDE201",
"<o c #FDE001",
"1o c None",
"2o c None",
"3o c #FEE101",
"4o c #FDE201",
"5o c None",
"6o c #FDE001",
"7o c None",
"8o c None",
"9o c #FDE001",
"0o c None",
"qo c None",
"wo c #FDE201",
"eo c None",
"ro c None",
"to c None",
"yo c #FDE001",
"uo c #FEE201",
"io c #FEE201",
"po c None",
"ao c #FDE201",
"so c None",
"do c #FDE201",
"fo c None",
"go c #FDE001",
"ho c None",
"jo c None",
"ko c None",
"lo c None",
"zo c #FEE001",
"xo c #FEE201",
"co c #FEE201",
"vo c None",
"bo c None",
"no c None",
"mo c #FDE001",
"Mo c None",
"No c #FEE001",
"Bo c #FEE201",
"Vo c #FDE201",
"Co c #FDE001",
"Zo c None",
"Ao c None",
"So c None",
"Do c None",
"Fo c None",
"Go c None",
"Ho c #FEE201",
"Jo c #FDE001",
"Ko c None",
"Lo c None",
"Po c #FEE201",
"Io c None",
"Uo c None",
"Yo c None",
"To c None",
"Ro c #FEE201",
"Eo c #FDE001",
"Wo c #FDE201",
"Qo c None",
"!o c None",
"~o c None",
"^o c None",
"/o c None",
"(o c None",
")o c None",
"_o c #FDE001",
"`o c #FDE001",
"'o c None",
"]o c #FDE201",
"[o c None",
"{o c #FDE201",
"}o c #FEE001",
"|o c #FEE201",
" O c #FDE201",
".O c #FDE001",
"XO c #FDE201",
"oO c #FEE201",
"OO c #FEE201",
"+O c None",
"@O c None",
"#O c None",
"$O c #FDE201",
"%O c #FFE101",
"&O c #FDE201",
"*O c None",
"=O c #FDE001",
"-O c #FEE201",
";O c None",
":O c None",
">O c #FDE001",
",O c #FEE201",
"<O c #FDE201",
"1O c None",
"2O c #FEE201",
"3O c None",
"4O c #FDE001",
"5O c #FDE201",
"6O c None",
"7O c #FEE201",
"8O c #FDE201",
"9O c None",
"0O c None",
"qO c #FEE201",
"wO c #FEE201",
"eO c None",
"rO c #FDE001",
"tO c None",
"yO c #FEE201",
"uO c #FDE001",
"iO c #FEE201",
"pO c #FEE201",
"aO c None",
"sO c None",
"dO c None",
"fO c None",
"gO c #FDE001",
"hO c #FEE201",
"jO c #FDE001",
"kO c #FEE201",
"lO c None",
"zO c None",
"xO c #FEE201",
"cO c #FDE101",
"vO c None",
"bO c #FDE101",
"nO c None",
"mO c None",
"MO c #FDE101",
"NO c None",
"BO c None",
"VO c None",
"CO c #FEE201",
"ZO c None",
"AO c None",
"SO c #FDE001",
"DO c #FDE101",
"FO c None",
"GO c #FDE101",
"HO c None",
"JO c #FDE101",
"KO c #FDE101",
"LO c #FFE201",
"PO c #FEE201",
"IO c None",
"UO c #FEE201",
"YO c None",
"TO c #FEE201",
"RO c None",
"EO c None",
"WO c None",
"QO c None",
"!O c #FEE201",
"~O c #FDE101",
"^O c #FDE101",
"/O c None",
"(O c #FEE201",
")O c #FDE101",
"_O c #FDE101",
"`O c None",
"'O c None",
"]O c #FEE201",
"[O c None",
"{O c #FFE201",
"}O c None",
"|O c None",
" + c #FEE201",
".+ c #FEE201",
"X+ c None",
"o+ c None",
"O+ c #FEE201",
"++ c #FEE201",
"@+ c #FDE101",
"#+ c #FEE201",
"$+ c #FEE201",
"%+ c None",
"&+ c None",
"*+ c #FDDF01",
"=+ c None",
"-+ c #FDE101",
";+ c #FDE101",
":+ c None",
">+ c #FEE201",
",+ c #FDDF01",
"<+ c None",
"1+ c #FDE101",
"2+ c None",
"3+ c #FEE201",
"4+ c None",
"5+ c None",
"6+ c None",
"7+ c #FEE201",
"8+ c None",
"9+ c None",
"0+ c #FEE201",
"q+ c #FDE101",
"w+ c #FEE201",
"e+ c #FDE101",
"r+ c None",
"t+ c None",
"y+ c #FEE201",
"u+ c None",
"i+ c None",
"p+ c #FDE101",
"a+ c #FDE101",
"s+ c None",
"d+ c #FDE101",
"f+ c None",
"g+ c None",
"h+ c None",
"j+ c None",
"k+ c None",
"l+ c #FEE201",
"z+ c #FEE201",
"x+ c None",
"c+ c #FEE201",
"v+ c #FDE101",
"b+ c None",
"n+ c #FEE301",
"m+ c None",
"M+ c #FEE201",
"N+ c #FDE101",
"B+ c None",
"V+ c #FEE201",
"C+ c #FDE101",
"Z+ c None",
"A+ c None",
"S+ c #FDE101",
"D+ c #FEE201",
"F+ c None",
"G+ c #FEE201",
"H+ c None",
"J+ c None",
"K+ c None",
"L+ c #FEE001",
"P+ c None",
"I+ c #FEE201",
"U+ c #FDDF01",
"Y+ c #FDE101",
"T+ c #FEE201",
"R+ c None",
"E+ c None",
"W+ c None",
"Q+ c None",
"!+ c None",
/* pixels */
"                                                                                                                                ",
"                                                  eoM.u+^.'Obo1o1obo X^.S.M.eo                                                  ",
"                                            Lo^osoNOAX. e+yoOowOwOy f.{ GOSo2.r+^.M.                                            ",
"                                      GoYX+XkXh M .+^XV+:oe.e.e.e.e.e.:oV+v.3.Eo;+7 oX).Go                                      ",
"                                  %Xm+|O^OK 0+=oe.e.=oc+z.NX]OyXyX]O$+z.c+G+e.e.U.TXxOio#XroGo                                  ",
"                              Go^.NOHo=OM+e.:o]X]Oj IX>o+.SXx.j+C.x./.k+2oPol lXz+:oe..oo.W ;.| Go                              ",
"                            & +XKOWo+oe.%o9.-O>o[OHO^.& %X            KoQo^.0X|O! 3 ++%oe.+oPODO/OYo                            ",
"                          ^.7oCo<Oe.J.$.LOqX1o~oGo                            GoS.E+fO[ *.%oe._XOo`X|                           ",
"                      Gobo^ $.W.:orOd+tO: Ko                                        Kof+p.v+i.:o=oo.Z+P Go                      ",
"                    %XBO}o&Oe.D.do&o-oKo                                                KoboK+Z M+e.3+F 5+Go                    ",
"                  KoH+a+jOe.WXd+g+~o                                                        S.lo{Oc.e.v.[ K.%X                  ",
"                GoBO/Xl+e.t.. 6+%X                                                            %X#OwXHXe._Xq+z Go                ",
"                y.;XjOe.XO>o XGo                                                                Go&Xn.L+e.!X_OP                 ",
"              ^.5og.e.t.a :                   %X;O| &X_ 'oa.fXo+o+fXa.'o_ &X| ;O%X                  f+n.HXe.3+no%+              ",
"            & 7o$.e.z.,+ X            GoVOW+vOEX4 IX= `.COUO(OsXsX(OUOCO`.= Ho4 EXvOW+VOGo            &X}.!Xe.eXQOQ+            ",
"          Go`OCoG+M+d+<+eo            N.5 3 TOTX.oG+e.e.e.e.e.e.e.e.e.e.e.e.G+.oTXTO3 5 N.            Go) N++o=or BX            ",
"          ^o3X<O:oM vO%X      & %+Ko  +Od e.e.e.e.e.e.e.e.e.%ok.k.%oe.e.e.e.e.e.e.e.e.yO+O  Ko| &       KoA+OX:o_X>XYX          ",
"        %X|O} e.$+&o@     Gom.7 # 0O  -o[Xe.e.e.e.e.e.e.:osX1+J+J+1+sX:oe.e.e.e.e.e.e.3 -o  0Opo7 6OGo    S.f uOe.4X:OGo        ",
"        (X5XJ.%od+}O      m.rXq.0.:   3O|oT+e.e.e.e.e.:o~ t+'onou 'oN ~ :oe.e.e.e.e.T+4.3O  : 0.q.rXm.      y.C+%o+o@+N.        ",
"      Go|O=Oe.$.tOKo      'oY e.Z.x+  ).co=oe.e.e.e.e.uOf AOY.7+$O:XAOf uOe.e.e.e.e.=o=X).  x+Z.e.Y 'o      Ko8+4Oe.TO:OGo      ",
"      YX^OM+%o6X:         m D e.xOaO  Qo8o.oe.e.e.e.=o6oP+p.uXe.e.uXp.+O9o=oe.e.e.e.D.8oQo  aOG e.kOm         (oO.U.c+7X[o      ",
"      `OK e.9.qXKo        p moe.!OfX  KodXz.e.e.e.e.NXo YO=X%oe.e.%o=XYOo rOe.e.e.e.z.dXKo  fX@.e.Oop         Ko!.r.e.B BX      ",
"    Lot k.:o-O1o          sOS+:os.&+Go  V.{oe.e.e.3oOo<+- `.e.e.e.e.`.- <+mo3oe.e.e.{oV.  Go&+s.:o|osO          6+7OI+%Oi+M.    ",
"    ^oPX=o5O>oS.          h+^O%oA.Mo&   1 G e.e.e.+oKOR+zXyXe.e.e.e.yX@oR+7X+oe.e.e.xO1   & MoA.%o^OR+          u+bO|XD+cXYX    ",
"    soM e.]O>.Go          Lofol+SO~X%.  RXS+:oe.e.WXgXM.2+t.e.e.e.e.t.p.M.q WXe.e.:o4.f+  YOp+SOl+foLo          GoQ.7.e.(.IO    ",
"  GoNO.+e.j _             Go8+NXe.B ,   ;O8oc+e.e.#+tOGo!.7+e.e.e.e.7+DXGoVX#+e.e.c+^ ;O  , B e.NX8+Go            To].e.4O:O    ",
"  LoX ^X=o6X^.              nOE e.MX0oGoGo4+++e.e.vX oGo:+%Oe.e.e.e.g.JXGo ovXe.e.++d.GoGo8+MXe.E nO              %.V G+c.XoKo  ",
"  VOJOV+c+Q &               'O9o:oD.>XVO  m pOe.e.] $ KoqXuOe.e.e.e.uO[.KoRO] e.e._.m   VONo.o:oOO'O              ;O8 M++o*oS.  ",
"  ^o .:oz.+.Ko              S.=.|XT+Oo6+  ).^OV+e.G.JOR+o+=Oe.e.e.e.=OU R+k G.e.V+^O).  c bXT+|XcOS.              Ko&o!XG+5X%+  ",
"   X% e.NXSXGo              GoVX7.e.q.EOKo%XEOMXe.T+,oIop go:oe.e.:o)Xp Io,oT+e.MXEO%XKodO#+e.7.VXGo              Go|.uOe.KXf+  ",
"  boOoe.]O<X                  <+L.e.J.T 9+  u.w :oe.t.2XVOA !Xe.e.!X< VOqot.e.:ow u.  9+Bo%oe.i c                   >.7.e.3 }O  ",
"  1os e.$.C.                  VO#oc+e.1XfXeo~oL ^Xe.=ohX1O)ov I+I+v /O1OhX=oe.^X{X~oGoF.1Xe.c+zoVO                  CX]oe.mobo  ",
"  1owOe.$.C.                  GoiX!Oe.z+*+[o  $o`oe.e.9.toFoO 3+3+x Foo 9.e.e.@X:.  ).DOz+e.!O:OGo                  ,X]oe.mobo  ",
"  boOoe.]O..                    !od+=oe.Y vOGoFo-Xl+e.G+B.T.p LXLXp 8.B.G+e.l+-XFoGo9 Voe.=oS !o                    >.7.e.3 }O  ",
"   Xf.e.t.p.Go                  Ko7oq.e.|X~O9+  ZX_oe.e.^Xg : ) ) : g ^Xe.e._oR   9+~O|Xe.q.:+Ko                  Go|.uOe.FXRX  ",
"  ^o* :oWXpXKo                    bow.=oe.tX/.KoR+u !Xe.e.{o}Xu+u+q  +e.e.!XnoR+Ko/.tXe.=ow.bo                    Ko5.!XG+1+YX  ",
"  VOg V+c+2o&                     Loho Oe.D+9o_ GoK.0 G+e.M+1+(o(oPXM+e.G+0 K.Go_ 9oD+e. OhoLo                    ;Oe M+G.#o~o  ",
"  M.K+v.=o8X^.                      (o5XG.e.w+5o%+Yo!+4OJ.,olOb.b.lOqOJ.4O!+Yo%+5ow+e.G.5X(o                      YOa+W.WXB+Ko  ",
"  Go9O +e.l _                       Goo+.Oe.e.eXC & sOk 3 2.h.aoEo4+|O3 k sO& `XeXe.e..Oo+Go                      m aoe.sX>     ",
"    m aoe.,.|OGo                      R+; s.e.=ol 9 M..X$oUoXX=o=oXXUo:.=+M.C.(.=oe.s.foR+                      GoFOO+e.wo0X    ",
"    ^.;+=oz+5oS.                        boUX8Oe.M+C+b+  eOS+J.e.e.J.S+P   2 C+M+e.8OUXbo                        VOe c+D+xoYX    ",
"    Lo7 TX:o3 E+                        GonXmoD+w+U+5+| /opX>Oe.e.>Ok+VO| 5+-+w+D+OoR.Go                        <+Oo3og.WOKo    ",
"      oXD e.mXQOKo                        YoE.oo;oP.Zog <.zO'XmXmXjozO<.. J+Ao;ow E.Yo                        KoqorOe.M Do      ",
"      0OrXM+D+Rof+                          S.K.s+n+3.v.p+oX'OH ko'OoXp+v. +bOs+K.S.                          'Od+=oc+. Fo      ",
"      GoJ tXe.aX2+Ko                          GovOB :oe.l++ I N.N.F++ l+e.:oB g+Go                          M.qX,.e.UO..Go      ",
"        mOW V+%ov+bo                            Foto*X=oe.+on t+t+].+oe.=o*Xto6                             1o<oD+M+xozO        ",
"        GoJ POe.>+K+S.                            VOtO4oD.e.:oMXMX:oe.D.4otOVO                            VOb s.e.1X<XGo        ",
"          | DO_X:oZ F.Ko                            Yo#.p+j.e.e.e.e.j.p+#.Yo                            Ko,X$XI+^Xe YX          ",
"          eo/Oy =oG.N+'.Go                            Go` vo/ V+V+/ vo@OGo                            Go9X<oV+=oB.8.            ",
"            Yo`Xo.e.c.uo&X                                [oJ e+e+J [o                                AO)OgOe.UOUo~.            ",
"              | Mos.e.HXn.f+                                Ko(o(oKo                                 X#os.e.HX{X0O              ",
"                P jX!Xe.L+n.6.Go                                                                GoAO#oGXe.y+~O1O                ",
"                Go5+[ _Xe.HXio) Ko                                                            Ko9X)Os.e.^X( IoGo                ",
"                  %XK.q+gOe.!X1.I S.                                                        VO,XY+v.e.WX1+9XGo                  ",
"                    Go{._O3+e.M+OXf ZOKo                                                Ko1ob $XV+e.HX~O<+Go                    ",
"                      GoAOnoX.=o:ouOC+8+(oKo                                        Ko'O|.<os.:o=oUOL 1OGo                      ",
"                          YXQXr _Xe.D+sXO.&+6+S.Go                            GoVO<+qo&.,.U.e.^X2O*O0O                          ",
"                            YoBX>X' G.e.D+r.r bOQ.l.zO;OKoGo        GoKo;O%.m VXe morOU.e.M+/ e 8.Q+                            ",
"                              Go%+:O@+TOD.e.I+A.7.].p+bOX+qX#X,X,X#X|.5.MOa+aoO+c+T+e.c+UOxox.0O                                ",
"                                  GoYO:O7XhOg.%oe.e.:oM+!XHX7.4O4OvXHX!XM+:oe.e.%o7+dog > zOGo                                  ",
"                                      Go[oBXi+}oiOsXy+G.G+T+e.e.e.e.T+G+M+WX-.JoxXWOH+FoGo                                      ",
"                                            KoYXIOlOX+I.( 6o3 momo,OoO1+H.kXb._ YXKo                                            ",
"                                                    Ko~oYXf+}Obobo}ORXYX~oKo                                                    ",
"                                                                                                                                "
};
