/* XPM */
static char *graphic[] = {
/* width height num_colors chars_per_pixel */
"32 32 305 2", 
/* colors */
"   c None",
".  c None",
"X  c #FDE101",
"o  c #FDE101",
"O  c None",
"+  c None",
"@  c #FDE101",
"#  c None",
"$  c None",
"%  c None",
"&  c None",
"*  c #FDE101",
"=  c None",
"-  c #FEE101",
";  c None",
":  c #FDE101",
">  c #FEE101",
",  c #FEE101",
"<  c None",
"1  c #FDE101",
"2  c #FDE101",
"3  c None",
"4  c #FDDF01",
"5  c #FDE101",
"6  c None",
"7  c None",
"8  c #FDE101",
"9  c #FDE101",
"0  c #FDE101",
"q  c None",
"w  c #FDE101",
"e  c None",
"r  c #FEE101",
"t  c #FDE101",
"y  c #FDE101",
"u  c #FDE101",
"i  c #FDE101",
"p  c None",
"a  c #FDE101",
"s  c None",
"d  c #FDE101",
"f  c None",
"g  c None",
"h  c None",
"j  c None",
"k  c None",
"l  c #FDE101",
"z  c #FEE101",
"x  c None",
"c  c None",
"v  c #FDE101",
"b  c #FDE101",
"n  c None",
"m  c None",
"M  c #FDE101",
"N  c None",
"B  c None",
"V  c #FEE101",
"C  c #FEE101",
"Z  c #FDE101",
"A  c #FDE101",
"S  c None",
"D  c #FEE101",
"F  c #FEE101",
"G  c #FDE101",
"H  c #FEE101",
"J  c None",
"K  c #FFE201",
"L  c #FDE101",
"P  c #FDE101",
"I  c None",
"U  c None",
"Y  c None",
"T  c #FEE101",
"R  c #FDE101",
"E  c #FDE101",
"W  c #FEE101",
"Q  c None",
"!  c None",
"~  c #FFE101",
"^  c None",
"/  c None",
"(  c #FEE101",
")  c #FEE101",
"_  c None",
"`  c #FEE101",
"'  c None",
"]  c #FDE201",
"[  c #FDE201",
"{  c None",
"}  c None",
"|  c #FDE201",
" . c #FDE101",
".. c None",
"X. c None",
"o. c None",
"O. c None",
"+. c None",
"@. c #FEE101",
"#. c #FDE201",
"$. c None",
"%. c None",
"&. c #FCE001",
"*. c None",
"=. c None",
"-. c None",
";. c None",
":. c #FDE001",
">. c None",
",. c #FDE001",
"<. c #FCE001",
"1. c #FDE001",
"2. c None",
"3. c #FEE101",
"4. c #FDE001",
"5. c None",
"6. c #FDE001",
"7. c #FDE001",
"8. c #FDE001",
"9. c None",
"0. c #FEE101",
"q. c None",
"w. c None",
"e. c #FDE201",
"r. c #FCE001",
"t. c #FDE201",
"y. c #FDE201",
"u. c #FDE001",
"i. c None",
"p. c #FDE001",
"a. c #FCE001",
"s. c #FDE201",
"d. c None",
"f. c #FEE101",
"g. c None",
"h. c #FEE101",
"j. c None",
"k. c None",
"l. c None",
"z. c None",
"x. c None",
"c. c #FDE001",
"v. c #FCE001",
"b. c None",
"n. c None",
"m. c None",
"M. c None",
"N. c #FDE201",
"B. c #FEE401",
"V. c None",
"C. c #FEE101",
"Z. c None",
"A. c None",
"S. c #FDE201",
"D. c None",
"F. c None",
"G. c None",
"H. c #FDE001",
"J. c #FDE201",
"K. c None",
"L. c None",
"P. c #FEE201",
"I. c #FEE101",
"U. c #FEE201",
"Y. c #FEE101",
"T. c #FEE101",
"R. c None",
"E. c #FDE201",
"W. c #FDE001",
"Q. c None",
"!. c None",
"~. c None",
"^. c None",
"/. c None",
"(. c #FEE201",
"). c None",
"_. c #FDE001",
"`. c #FDE001",
"'. c None",
"]. c #FDE001",
"[. c None",
"{. c #FDE001",
"}. c None",
"|. c #FDE001",
" X c #FDE001",
".X c None",
"XX c #FDE201",
"oX c None",
"OX c None",
"+X c #FEE201",
"@X c None",
"#X c None",
"$X c None",
"%X c None",
"&X c #FDE001",
"*X c #FEE001",
"=X c #FDE201",
"-X c None",
";X c #FDE001",
":X c None",
">X c None",
",X c None",
"<X c #FDE001",
"1X c #FEE001",
"2X c None",
"3X c None",
"4X c #FDE001",
"5X c #FEE001",
"6X c #FEE201",
"7X c #FDE201",
"8X c None",
"9X c None",
"0X c #FDE001",
"qX c #FDE001",
"wX c #FDE001",
"eX c None",
"rX c #FEE201",
"tX c #FDE001",
"yX c #FDE001",
"uX c #FEE201",
"iX c #FEE001",
"pX c None",
"aX c None",
"sX c #FDE001",
"dX c #FEE201",
"fX c None",
"gX c None",
"hX c None",
"jX c #FEE001",
"kX c #FDE001",
"lX c None",
"zX c #FEE201",
"xX c #FEE201",
"cX c #FCE101",
"vX c None",
"bX c None",
"nX c None",
"mX c None",
"MX c #FDE101",
"NX c #FEE201",
"BX c #FDE101",
"VX c None",
"CX c None",
"ZX c #FDE101",
"AX c None",
"SX c None",
"DX c None",
"FX c None",
"GX c #FEE201",
"HX c None",
"JX c None",
"KX c #FEE201",
"LX c None",
"PX c None",
"IX c #FEE201",
"UX c None",
"YX c None",
"TX c None",
"RX c #FDE101",
"EX c #FDE101",
"WX c None",
"QX c None",
"!X c #FDDF01",
"~X c None",
"^X c #FFE201",
"/X c None",
"(X c None",
")X c None",
"_X c None",
"`X c #FBE001",
"'X c None",
"]X c #FDE101",
"[X c None",
"{X c None",
"}X c None",
"|X c #FDE101",
" o c None",
".o c None",
"Xo c None",
"oo c #FDE101",
"Oo c None",
"+o c None",
"@o c #FDE101",
"#o c #FDE101",
"$o c #FDE101",
"%o c #FEE201",
"&o c None",
"*o c #FDE101",
"=o c #FEE201",
"-o c #FEE201",
";o c #FDE101",
":o c #FDE101",
">o c None",
",o c #FDE101",
"<o c None",
"1o c #FDDF01",
"2o c #FDE101",
"3o c None",
"4o c None",
"5o c #FEE201",
"6o c None",
"7o c None",
"8o c None",
"9o c #FEE001",
"0o c None",
/* pixels */
"                      %X_ bXR.PXPX>.bX_ %X                      ",
"                  +oc nX,.*o` xXxX` *o`X+ c _                   ",
"              ,XY }.5 =Xr.T ]X#.#.]Xo i wX2 p <o,X              ",
"          ~.bXZ.5 v.iX&oAX;.+.FXFXeXaXL.; t.qX` M.=.~.          ",
"        %XfX[ v.T mX! -X                -X;.B @ v , ' %X        ",
"        fXr tX#.SX-X                        -X< 7.tX8.g.        ",
"      bX[ tX!.~X%X  ^ $X! PXg hXhXg PX! $X^   %X;.~ tXZX/       ",
"    pXOoqX*X~X%X%Xm O.EXo <XGXb b GX<Xo EXO.m %X%X;.(.v n.#     ",
"    j.<.cXSX,Xw.SXn E.I.5oT.h.* * h.T.5oI.E.n SXw.,X{ @ |.3o    ",
"  _ }.v.TX-XXo:o>oR.J.K K kX| 8.8.1.kXK K J.R.'X:oXo-Xk.qXG._   ",
"  9X5 e.!   e ;X:.! V T.Y.W._X0.0._XjXY.T.#o! ] @.e   aXy.1 x.  ",
"%XV.wX&o-X  s ].oo! 1.-oC.q ZX=o=oZXq C.-oU.! oo].s   -X3 wX:X%X",
"_ U.u AX    m c.9 e n.R sXJXu. . .u.lXsXR n.e 9 c.m     } NXBX2X",
"VX^XX !     # G.yXo.4oGXA HX5XY.Y.p.HXA GX4oo.yXG.#     2.N.H./ ",
"R. X1ogX    %X(XM 1.)X@oE b.#X%o%ok b.E @o)X| M (X%X    ^.c.1 6 ",
"PXw 4.FX      7o* &XWX[.P 6XQXl l QX2oP [.WX0 * 7o      6o8.0 n ",
"PXw 4.FX      _ .XG >X<o|.G l.x x 7 G |.<o).7X.X_       6o8.0 n ",
"R. X]Xm.        ..y 9 hX8o9o8 q.q.8 9o8ohX9 y ..        [Xc.: I ",
"bX*orX;.        = j L 4.CXF a.9.A.d F CX4.L j =         /X_.$o/ ",
"_ P.i L.          { uXZ i.Q '.,oH % Q i.Z S.{           hXa - 2X",
"%XYX=X; -X        -Xz.d ;oS N yXyX%.*.s.d z.-X        -XK.wX$.%X",
"  c 2 t.;.          $X oD.1oA.OX8XA.+XD. o$X          DXD dXLX  ",
"  _ p KXB -X          pX{Xv XXG.G.XXv {XpX          0o}Xb F.2X  ",
"    U 2 @ { %X          m Z.t f.f.t Z.m           %X@X`.: X.    ",
"    ,X$ v B.;.            _ f |X|Xf _             DXRX3.5.#     ",
"      / , IX~ ;.%X          -.& & -.          %XaX> tX- UX      ",
"        g.1XtX7.h -X                        0oX.RXtX6.oX        ",
"        %XJ ZX0X&.k.aX-X                -XDX}X`.0XMXQ.%X        ",
"          . / n.) b y.i.} 2.m.FXFX^./Xd.K.4 b ( O UX            ",
"              ,X3o3X1 wX4XW z 8.8.c._.a =X( F.X.#               ",
"                  _ x.:XBXC {.zXzX: $o!XvX.o_                   ",
"                      %X2XUXI n /.I UX2X%X                      "
};
